<svg xmlns="http://www.w3.org/2000/svg" viewBox="0 0 24 24" role="img" aria-hidden="true">
  <path fill="currentColor" d="M16.71 12.82c.02 2.35 2.06 3.14 2.08 3.15-.02.06-.33 1.15-1.09 2.27-.65.96-1.32 1.91-2.39 1.93-1.06.02-1.4-.62-2.62-.62-1.22 0-1.6.6-2.58.64-1.03.04-1.81-1.03-2.46-1.98-1.33-1.91-2.35-5.42-.98-7.78.68-1.16 1.89-1.9 3.2-1.92 1-.02 1.95.67 2.62.67.67 0 1.93-.83 3.25-.71.55.02 2.1.22 3.1 1.69-.08.05-1.85 1.08-1.83 3.66Zm-2.2-5.3c.54-.66.91-1.56.81-2.47-.78.03-1.72.52-2.28 1.18-.5.58-.93 1.5-.81 2.38.87.07 1.76-.44 2.28-1.09Z"/>
</svg>
