<svg xmlns="http://www.w3.org/2000/svg" viewBox="0 0 24 24" role="img" aria-hidden="true">
  <path fill="#4285F4" d="M23.49 12.27c0-.79-.07-1.54-.2-2.27H12v4.29h6.47a5.53 5.53 0 0 1-2.4 3.63v3.01h3.88c2.27-2.09 3.54-5.17 3.54-8.66Z"/>
  <path fill="#34A853" d="M12 24c3.24 0 5.95-1.07 7.93-2.91l-3.88-3.01c-1.08.72-2.45 1.15-4.05 1.15-3.11 0-5.75-2.1-6.7-4.92H1.28v3.09A12 12 0 0 0 12 24Z"/>
  <path fill="#FBBC05" d="M5.3 14.31A7.2 7.2 0 0 1 4.93 12c0-.8.14-1.57.37-2.31V6.6H1.28A12 12 0 0 0 0 12c0 1.93.46 3.76 1.28 5.4l4.02-3.09Z"/>
  <path fill="#EA4335" d="M12 4.77c1.76 0 3.35.61 4.59 1.82l3.44-3.44C17.94 1.18 15.23 0 12 0A12 12 0 0 0 1.28 6.6l4.02 3.09c.95-2.82 3.59-4.92 6.7-4.92Z"/>
</svg>
